<mxfile host="app.diagrams.net" modified="2023-03-01T14:54:56.819Z" agent="5.0 (Macintosh; Intel Mac OS X 10_15_7) AppleWebKit/537.36 (KHTML, like Gecko) Chrome/109.0.0.0 Safari/537.36 Edg/109.0.1518.70" etag="asu3tGAugp5-DyZfE1mY" version="20.8.13" type="github">
  <diagram name="第 1 页" id="ejHZZwVxkcxiUhgQxFvp">
    <mxGraphModel dx="1329" dy="828" grid="1" gridSize="10" guides="1" tooltips="1" connect="1" arrows="1" fold="1" page="1" pageScale="1" pageWidth="827" pageHeight="1169" math="0" shadow="0">
      <root>
        <mxCell id="0" />
        <mxCell id="1" parent="0" />
        <mxCell id="8DuH4D30n_TOJNGaP2V3-1" value="" style="rounded=1;whiteSpace=wrap;html=1;sketch=1;curveFitting=1;jiggle=2;shadow=1;glass=0;" vertex="1" parent="1">
          <mxGeometry x="130" y="340" width="220" height="480" as="geometry" />
        </mxCell>
        <mxCell id="8DuH4D30n_TOJNGaP2V3-2" value="" style="rounded=1;whiteSpace=wrap;html=1;shadow=1;glass=0;sketch=1;" vertex="1" parent="1">
          <mxGeometry x="710" y="345" width="230" height="485" as="geometry" />
        </mxCell>
        <mxCell id="8DuH4D30n_TOJNGaP2V3-3" value="Browser" style="text;html=1;strokeColor=none;fillColor=none;align=center;verticalAlign=middle;whiteSpace=wrap;rounded=0;" vertex="1" parent="1">
          <mxGeometry x="200" y="290" width="60" height="30" as="geometry" />
        </mxCell>
        <mxCell id="8DuH4D30n_TOJNGaP2V3-4" value="Server" style="text;html=1;strokeColor=none;fillColor=none;align=center;verticalAlign=middle;whiteSpace=wrap;rounded=0;" vertex="1" parent="1">
          <mxGeometry x="810" y="290" width="60" height="30" as="geometry" />
        </mxCell>
        <mxCell id="8DuH4D30n_TOJNGaP2V3-5" value="CA" style="rounded=1;whiteSpace=wrap;html=1;shadow=1;glass=0;sketch=1;" vertex="1" parent="1">
          <mxGeometry x="450" y="70" width="120" height="40" as="geometry" />
        </mxCell>
      </root>
    </mxGraphModel>
  </diagram>
</mxfile>
